<svg width="202" height="179" viewBox="0 0 202 179" fill="none" xmlns="http://www.w3.org/2000/svg">
<rect x="34.5" y="91.4995" width="12" height="4" rx="1.5" fill="#D9D9D9" stroke="#D9D9D9"/>
<rect x="14.5" y="91.4995" width="17" height="4" rx="1.5" fill="#D9D9D9" stroke="#D9D9D9"/>
<rect x="49.5" y="91.4995" width="20" height="4" rx="1.5" fill="#D9D9D9" stroke="#D9D9D9"/>
<rect x="72.5" y="91.4995" width="5" height="4" rx="1.5" fill="#D9D9D9" stroke="#D9D9D9"/>
<rect x="80.5" y="91.4995" width="11" height="4" rx="1.5" fill="#D9D9D9" stroke="#D9D9D9"/>
<rect x="94.5" y="91.4995" width="4" height="4" rx="1.5" fill="#D9D9D9" stroke="#D9D9D9"/>
<path d="M16.4609 104.845H102.961V110.845H14.9609V106.345C14.9609 105.517 15.6325 104.845 16.4609 104.845Z" fill="#D9D9D9" stroke="#D9D9D9"/>
<path d="M17.4922 110.345C21.4031 137.476 46.1752 136.633 47.4379 136.515" stroke="#D9D9D9" stroke-width="6"/>
<path d="M75.4346 110.345C71.5236 137.476 46.7515 136.633 45.4889 136.515" stroke="#D9D9D9" stroke-width="6"/>
<path d="M52.9609 40.8452C30.9609 26.8452 14.0765 49.2365 13.4609 50.3452" stroke="#D9D9D9" stroke-width="6"/>
<path d="M15.9609 81.8452C-0.539062 66.3452 13.9609 49.3452 15.9609 47.3452" stroke="#D9D9D9" stroke-width="6"/>
<path d="M83.4592 33.3452C75.4595 7.8452 42.4592 16.8452 31.4591 37.3452" stroke="#D9D9D9" stroke-width="6"/>
<path d="M99.9601 53.8452C139.96 23.8452 83.46 -1.15475 67.46 17.3452" stroke="#D9D9D9" stroke-width="6"/>
<path d="M128.959 45.8454C164.96 38.8454 123.46 2.84538 104.007 17.6908" stroke="#D9D9D9" stroke-width="6"/>
<path d="M168.96 59.3452C168.96 51.3454 156.828 31.8451 144.46 31.8452" stroke="#D9D9D9" stroke-width="6"/>
<path d="M143.46 62.3453C91.9604 53.3453 86.4602 136.845 142.96 129.345" stroke="#D9D9D9" stroke-width="6"/>
<path d="M89.9605 129.345C85.9604 162.345 143.96 174.345 149.461 166.345" stroke="#D9D9D9" stroke-width="6"/>
<path d="M148.46 167.345C158.46 159.345 160.96 141.845 160.96 131.345" stroke="#D9D9D9" stroke-width="6"/>
<path d="M176.461 129.345C189.461 131.845 188.961 62.3452 177.461 62.3452" stroke="#D9D9D9" stroke-width="6"/>
<path d="M149.96 62.3453C107.51 58.1256 107.01 134.611 149.96 129.345" stroke="#D9D9D9" stroke-width="6"/>
<path d="M100.46 58.8453C98.459 54.8453 90.4588 37.8454 67.4601 48.3453M52.46 66.3453C50.96 53.8453 28.96 54.8453 23.4606 65.3453M86.9599 80.8454C85.9599 68.8454 80.4599 64.3454 75.9598 61.8454" stroke="#D9D9D9" stroke-width="6"/>
<rect x="13.9609" y="79.8452" width="90" height="4" rx="1.5" fill="#D9D9D9" stroke="#D9D9D9"/>
<rect x="13.9609" y="79.8452" width="90" height="4" rx="1.5" fill="#D9D9D9" stroke="#D9D9D9"/>
<path d="M54.9609 138.845V170.345C54.9609 171.173 54.2894 171.845 53.4609 171.845H50.4609C49.6325 171.845 48.9609 171.173 48.9609 170.345V138.845H54.9609Z" fill="#D9D9D9" stroke="#D9D9D9"/>
<rect x="140.961" y="126.845" width="37" height="5" fill="#D9D9D9" stroke="#D9D9D9"/>
<rect x="140.961" y="59.8452" width="37" height="5" fill="#D9D9D9" stroke="#D9D9D9"/>
<rect x="137.961" y="82.8452" width="6" height="28" rx="1.5" fill="#D9D9D9" fill-opacity="0.5" stroke="#D9D9D9"/>
</svg>
