<svg width="202" height="179" viewBox="0 0 202 179" fill="none" xmlns="http://www.w3.org/2000/svg">
<path d="M16.4609 104.845H102.961V110.845H14.9609V106.345C14.9609 105.517 15.6325 104.845 16.4609 104.845Z" fill="#D9D9D9" stroke="#D9D9D9"/>
<path d="M17.4922 110.345C21.4031 137.476 46.1752 136.633 47.4379 136.516" stroke="#D9D9D9" stroke-width="6"/>
<path d="M75.4346 110.345C71.5236 137.476 46.7515 136.633 45.4889 136.516" stroke="#D9D9D9" stroke-width="6"/>
<path d="M52.9609 40.8455C30.9609 26.8455 14.0765 49.2367 13.4609 50.3455" stroke="#D9D9D9" stroke-width="6"/>
<path d="M15.9609 81.8455C-0.539062 66.3455 13.9609 49.3455 15.9609 47.3455" stroke="#D9D9D9" stroke-width="6"/>
<path d="M83.4592 33.3455C75.4595 7.84544 42.4592 16.8455 31.4591 37.3455" stroke="#D9D9D9" stroke-width="6"/>
<path d="M99.9611 53.8454C139.961 23.8455 83.461 -1.15451 67.461 17.3454" stroke="#D9D9D9" stroke-width="6"/>
<path d="M128.96 45.8454C164.961 38.8454 123.461 2.84538 104.008 17.6908" stroke="#D9D9D9" stroke-width="6"/>
<path d="M168.96 59.3454C168.96 51.3456 156.828 31.8453 144.46 31.8454" stroke="#D9D9D9" stroke-width="6"/>
<path d="M143.46 62.3456C91.9604 53.3455 86.4602 136.846 142.96 129.346" stroke="#D9D9D9" stroke-width="6"/>
<path d="M89.9605 129.346C85.9604 162.345 143.96 174.345 149.461 166.346" stroke="#D9D9D9" stroke-width="6"/>
<path d="M148.46 167.345C158.46 159.345 160.96 141.845 160.96 131.345" stroke="#D9D9D9" stroke-width="6"/>
<path d="M176.461 129.345C189.461 131.845 188.961 62.3454 177.461 62.3454" stroke="#D9D9D9" stroke-width="6"/>
<path d="M149.96 62.3455C107.51 58.1257 107.01 134.611 149.96 129.345" stroke="#D9D9D9" stroke-width="6"/>
<path d="M100.46 58.8454C98.459 54.8454 90.4588 37.8455 67.4601 48.3454M52.46 66.3454C50.96 53.8454 28.96 54.8454 23.4606 65.3454M86.9599 80.8455C85.9599 68.8455 80.4599 64.3455 75.9598 61.8455" stroke="#D9D9D9" stroke-width="6"/>
<rect x="13.9609" y="79.8455" width="90" height="4" rx="1.5" fill="#D9D9D9" stroke="#D9D9D9"/>
<rect x="13.9609" y="79.8455" width="90" height="4" rx="1.5" fill="#D9D9D9" stroke="#D9D9D9"/>
<path d="M54.9609 138.845V170.345C54.9609 171.173 54.2894 171.845 53.4609 171.845H50.4609C49.6325 171.845 48.9609 171.173 48.9609 170.345V138.845H54.9609Z" fill="#D9D9D9" stroke="#D9D9D9"/>
<rect x="140.961" y="126.845" width="37" height="5" fill="#D9D9D9" stroke="#D9D9D9"/>
<rect x="140.961" y="59.8455" width="37" height="5" fill="#D9D9D9" stroke="#D9D9D9"/>
<rect x="137.461" y="82.3455" width="7" height="29" rx="2" fill="#D9D9D9"/>
</svg>
